<svg xmlns="http://www.w3.org/2000/svg" xmlns:svgjs="http://svgjs.com/svgjs" xmlns:xlink="http://www.w3.org/1999/xlink" width="288" height="288"><svg xmlns="http://www.w3.org/2000/svg" width="288" height="288" fill="none" viewBox="0 0 6034 1222"><g fill="#000" class="color000 svgShape" clip-path="url(#a)"><path fill="#fff" d="M658.661 364.031C687.4 427.783 732.937 471.065 796.239 498.44 792.742 502.443 790.443 505.576 787.612 508.245 739.911 554.05 692.317 599.981 644.268 645.428 635.41 653.812 631.855 662.621 631.903 674.795 632.29 779.17 630.628 883.573 632.734 987.909 633.845 1043.03 587.545 1087.79 534.396 1087.99 476.687 1088.2 433.701 1045.78 433.585 987.425 433.372 882.587 433.417 777.745 433.72 672.9 433.72 661.296 430.638 653.009 422.06 644.858 311.125 539.136 200.39 433.221 89.8545 327.112 82.1265 319.715 73.8769 312.821 66.4291 305.153 40.0671 278.078 31.3924 245.684 43.1293 209.926 54.8661 174.167 81.1315 153.165 117.839 145.835 152.828 138.854 183.682 148.562 209.213 172.833 287.526 247.289 365.327 322.278 443.399 396.986 469.974 422.426 497.079 447.316 523.277 473.144 531.198 480.967 536.164 480.522 543.766 473.144 577.161 440.683 611.009 408.686 644.722 376.553 648.692 372.782 652.875 369.224 658.661 364.031zM1055 278.164C1054.16 382.916 947.774 457.537 843.36 426.207 768.534 403.754 722.06 335.312 729.981 259.337 737.477 187.356 801.126 129.106 877.633 122.608 960.226 115.598 1036.63 169.487 1052.02 249.068 1053.87 258.602 1054.05 268.456 1055 278.164z" class="color0ABAB5 svgShape"/></g><path fill="#fff" d="M1596.57 414.392H1674.71V564.344C1654.65 579.48 1631.42 591.096 1605.02 599.192C1578.62 607.288 1552.04 611.336 1525.29 611.336C1486.92 611.336 1452.42 603.24 1421.8 587.048C1391.18 570.504 1367.06 547.8 1349.46 518.936C1332.22 489.72 1323.59 456.808 1323.59 420.2C1323.59 383.592 1332.22 350.856 1349.46 321.992C1367.06 292.776 1391.35 270.072 1422.33 253.88C1453.3 237.336 1488.15 229.064 1526.87 229.064C1559.26 229.064 1588.65 234.52 1615.05 245.432C1641.45 256.344 1663.62 272.184 1681.58 292.952L1626.66 343.64C1600.26 315.832 1568.41 301.928 1531.1 301.928C1507.51 301.928 1486.57 306.856 1468.26 316.712C1449.96 326.568 1435.7 340.472 1425.5 358.424C1415.29 376.376 1410.18 396.968 1410.18 420.2C1410.18 443.08 1415.29 463.496 1425.5 481.448C1435.7 499.4 1449.78 513.48 1467.74 523.688C1486.04 533.544 1506.81 538.472 1530.04 538.472C1554.68 538.472 1576.86 533.192 1596.57 522.632V414.392ZM2066.74 536.36V605H1780.57V235.4H2059.88V304.04H1865.58V384.296H2037.18V450.824H1865.58V536.36H2066.74ZM2500.18 235.4V605H2429.95L2245.68 380.6V605H2161.2V235.4H2231.95L2415.7 459.8V235.4H2500.18ZM2778.23 611.336C2725.43 611.336 2684.25 596.728 2654.68 567.512C2625.46 538.296 2610.86 496.584 2610.86 442.376V235.4H2696.39V439.208C2696.39 505.384 2723.85 538.472 2778.76 538.472C2805.51 538.472 2825.93 530.552 2840.01 514.712C2854.09 498.52 2861.13 473.352 2861.13 439.208V235.4H2945.61V442.376C2945.61 496.584 2930.82 538.296 2901.26 567.512C2872.04 596.728 2831.03 611.336 2778.23 611.336ZM3056.53 235.4H3142.07V605H3056.53V235.4ZM3595.16 235.4V605H3524.94L3340.66 380.6V605H3256.18V235.4H3326.94L3510.68 459.8V235.4H3595.16ZM3886.41 474.056V605H3800.88V473L3657.79 235.4H3748.61L3847.34 399.608L3946.08 235.4H4030.03L3886.41 474.056Z" class="color0ABAB5 svgShape"/><path fill="#000" d="M1521.75 999.5V1045H1332.05V800H1517.2V845.5H1388.4V898.7H1502.15V942.8H1388.4V999.5H1521.75ZM1635.11 846.2H1556.71V800H1770.21V846.2H1691.81V1045H1635.11V846.2ZM2042.92 800V1045H1986.22V944.55H1874.92V1045H1818.22V800H1874.92V896.6H1986.22V800H2042.92ZM2118.39 800H2175.09V1045H2118.39V800ZM2367.98 1049.2C2343.01 1049.2 2320.38 1043.83 2300.08 1033.1C2280.01 1022.13 2264.15 1007.08 2252.48 987.95C2241.05 968.583 2235.33 946.767 2235.33 922.5C2235.33 898.233 2241.05 876.533 2252.48 857.4C2264.15 838.033 2280.01 822.983 2300.08 812.25C2320.38 801.283 2343.13 795.8 2368.33 795.8C2389.56 795.8 2408.7 799.533 2425.73 807C2443 814.467 2457.46 825.2 2469.13 839.2L2432.73 872.8C2416.16 853.667 2395.63 844.1 2371.13 844.1C2355.96 844.1 2342.43 847.483 2330.53 854.25C2318.63 860.783 2309.3 870 2302.53 881.9C2296 893.8 2292.73 907.333 2292.73 922.5C2292.73 937.667 2296 951.2 2302.53 963.1C2309.3 975 2318.63 984.333 2330.53 991.1C2342.43 997.633 2355.96 1000.9 2371.13 1000.9C2395.63 1000.9 2416.16 991.217 2432.73 971.85L2469.13 1005.45C2457.46 1019.68 2443 1030.53 2425.73 1038C2408.46 1045.47 2389.21 1049.2 2367.98 1049.2ZM2681.49 992.5H2567.74L2546.04 1045H2487.94L2597.14 800H2653.14L2762.69 1045H2703.19L2681.49 992.5ZM2663.64 949.45L2624.79 855.65L2585.94 949.45H2663.64ZM2805.6 800H2862.3V998.8H2985.15V1045H2805.6V800ZM3201.71 846.2H3123.31V800H3336.81V846.2H3258.41V1045H3201.71V846.2ZM3574.51 999.5V1045H3384.81V800H3569.96V845.5H3441.16V898.7H3554.91V942.8H3441.16V999.5H3574.51ZM3753.69 1049.2C3728.73 1049.2 3706.09 1043.83 3685.79 1033.1C3665.73 1022.13 3649.86 1007.08 3638.19 987.95C3626.76 968.583 3621.04 946.767 3621.04 922.5C3621.04 898.233 3626.76 876.533 3638.19 857.4C3649.86 838.033 3665.73 822.983 3685.79 812.25C3706.09 801.283 3728.84 795.8 3754.04 795.8C3775.28 795.8 3794.41 799.533 3811.44 807C3828.71 814.467 3843.18 825.2 3854.84 839.2L3818.44 872.8C3801.88 853.667 3781.34 844.1 3756.84 844.1C3741.68 844.1 3728.14 847.483 3716.24 854.25C3704.34 860.783 3695.01 870 3688.24 881.9C3681.71 893.8 3678.44 907.333 3678.44 922.5C3678.44 937.667 3681.71 951.2 3688.24 963.1C3695.01 975 3704.34 984.333 3716.24 991.1C3728.14 997.633 3741.68 1000.9 3756.84 1000.9C3781.34 1000.9 3801.88 991.217 3818.44 971.85L3854.84 1005.45C3843.18 1019.68 3828.71 1030.53 3811.44 1038C3794.18 1045.47 3774.93 1049.2 3753.69 1049.2ZM4135.33 800V1045H4078.63V944.55H3967.33V1045H3910.63V800H3967.33V896.6H4078.63V800H4135.33ZM4435.5 800V1045H4388.95L4266.8 896.25V1045H4210.8V800H4257.7L4379.5 948.75V800H4435.5ZM4629.62 1049.2C4604.18 1049.2 4581.2 1043.72 4560.67 1032.75C4540.37 1021.78 4524.38 1006.73 4512.72 987.6C4501.28 968.233 4495.57 946.533 4495.57 922.5C4495.57 898.467 4501.28 876.883 4512.72 857.75C4524.38 838.383 4540.37 823.217 4560.67 812.25C4581.2 801.283 4604.18 795.8 4629.62 795.8C4655.05 795.8 4677.92 801.283 4698.22 812.25C4718.52 823.217 4734.5 838.383 4746.17 857.75C4757.83 876.883 4763.67 898.467 4763.67 922.5C4763.67 946.533 4757.83 968.233 4746.17 987.6C4734.5 1006.73 4718.52 1021.78 4698.22 1032.75C4677.92 1043.72 4655.05 1049.2 4629.62 1049.2ZM4629.62 1000.9C4644.08 1000.9 4657.15 997.633 4668.82 991.1C4680.48 984.333 4689.58 975 4696.12 963.1C4702.88 951.2 4706.27 937.667 4706.27 922.5C4706.27 907.333 4702.88 893.8 4696.12 881.9C4689.58 870 4680.48 860.783 4668.82 854.25C4657.15 847.483 4644.08 844.1 4629.62 844.1C4615.15 844.1 4602.08 847.483 4590.42 854.25C4578.75 860.783 4569.53 870 4562.77 881.9C4556.23 893.8 4552.97 907.333 4552.97 922.5C4552.97 937.667 4556.23 951.2 4562.77 963.1C4569.53 975 4578.75 984.333 4590.42 991.1C4602.08 997.633 4615.15 1000.9 4629.62 1000.9ZM4823.78 800H4880.48V998.8H5003.33V1045H4823.78V800ZM5167.06 1049.2C5141.62 1049.2 5118.64 1043.72 5098.11 1032.75C5077.81 1021.78 5061.82 1006.73 5050.16 987.6C5038.72 968.233 5033.01 946.533 5033.01 922.5C5033.01 898.467 5038.72 876.883 5050.16 857.75C5061.82 838.383 5077.81 823.217 5098.11 812.25C5118.64 801.283 5141.62 795.8 5167.06 795.8C5192.49 795.8 5215.36 801.283 5235.66 812.25C5255.96 823.217 5271.94 838.383 5283.61 857.75C5295.27 876.883 5301.11 898.467 5301.11 922.5C5301.11 946.533 5295.27 968.233 5283.61 987.6C5271.94 1006.73 5255.96 1021.78 5235.66 1032.75C5215.36 1043.72 5192.49 1049.2 5167.06 1049.2ZM5167.06 1000.9C5181.52 1000.9 5194.59 997.633 5206.26 991.1C5217.92 984.333 5227.02 975 5233.56 963.1C5240.32 951.2 5243.71 937.667 5243.71 922.5C5243.71 907.333 5240.32 893.8 5233.56 881.9C5227.02 870 5217.92 860.783 5206.26 854.25C5194.59 847.483 5181.52 844.1 5167.06 844.1C5152.59 844.1 5139.52 847.483 5127.86 854.25C5116.19 860.783 5106.97 870 5100.21 881.9C5093.67 893.8 5090.41 907.333 5090.41 922.5C5090.41 937.667 5093.67 951.2 5100.21 963.1C5106.97 975 5116.19 984.333 5127.86 991.1C5139.52 997.633 5152.59 1000.9 5167.06 1000.9ZM5526.77 918.65H5578.57V1018.05C5565.27 1028.08 5549.87 1035.78 5532.37 1041.15C5514.87 1046.52 5497.25 1049.2 5479.52 1049.2C5454.09 1049.2 5431.22 1043.83 5410.92 1033.1C5390.62 1022.13 5374.64 1007.08 5362.97 987.95C5351.54 968.583 5345.82 946.767 5345.82 922.5C5345.82 898.233 5351.54 876.533 5362.97 857.4C5374.64 838.033 5390.74 822.983 5411.27 812.25C5431.8 801.283 5454.9 795.8 5480.57 795.8C5502.04 795.8 5521.52 799.417 5539.02 806.65C5556.52 813.883 5571.22 824.383 5583.12 838.15L5546.72 871.75C5529.22 853.317 5508.1 844.1 5483.37 844.1C5467.74 844.1 5453.85 847.367 5441.72 853.9C5429.59 860.433 5420.14 869.65 5413.37 881.55C5406.6 893.45 5403.22 907.1 5403.22 922.5C5403.22 937.667 5406.6 951.2 5413.37 963.1C5420.14 975 5429.47 984.333 5441.37 991.1C5453.5 997.633 5467.27 1000.9 5482.67 1000.9C5499 1000.9 5513.7 997.4 5526.77 990.4V918.65ZM5766.34 958.2V1045H5709.64V957.5L5614.79 800H5674.99L5740.44 908.85L5805.89 800H5861.54L5766.34 958.2Z" class="color000 svgShape"/><defs><clipPath id="a"><rect width="1017" height="966" fill="#fff" class="colorfff svgShape" transform="translate(38 122)"/></clipPath></defs></svg></svg>